<svg xmlns="http://www.w3.org/2000/svg" fill="none" viewBox="0 0 1361 450" height="450" width="1361">
<path fill="#F5E5FF" d="M777.394 0L515.994 450H1360.79V0H777.394Z"></path>
<path fill="white" d="M515.999 450L777.399 0H0.798828V450H515.999Z"></path>
<path fill="#9E00FF" d="M801.502 129.6H876.402C919.302 129.6 942.602 155.3 942.602 191.6C942.602 227.9 919.302 253.8 876.402 253.8H836.502V318.2H801.502V129.6ZM875.302 224.2C893.302 224.2 907.102 212.8 907.102 191.6C907.102 170.4 893.302 159.3 875.302 159.3H836.502V224.2H875.302Z"></path>
<path fill="#9E00FF" d="M953.907 280.896C953.907 257.896 969.507 242.196 1002.61 239.096L1044.41 235.096V228.496C1044.41 214.696 1037.81 203.296 1019.51 203.296C1003.31 203.296 995.107 211.796 993.307 224.496H960.707C963.107 195.896 983.707 178.896 1020.01 178.896C1059.71 178.896 1076.41 198.196 1076.41 227.396V318.196H1044.61V301.796C1034.51 314.496 1018.41 321.396 1000.41 321.396C972.907 321.396 953.807 306.796 953.807 280.896H953.907ZM1009.51 297.596C1028.01 297.596 1044.51 286.496 1044.51 264.496V257.096L1009.51 260.496C996.007 261.796 987.307 268.696 987.307 279.796C987.307 290.896 996.007 297.496 1009.51 297.496V297.596Z"></path>
<path fill="#9E00FF" d="M1112.5 345H1130.5C1143.5 345 1149.3 339.4 1153 326.5L1155.4 318.3H1137.1L1093.1 182.2H1127.3L1161.2 297.9L1194.8 182.2H1228.7L1181 333.4C1171.7 363.1 1156.6 371.3 1133.3 371.3H1112.4V345.1L1112.5 345Z"></path>
<path fill="black" d="M254.703 130.898H206.203L190.603 184.298L174.903 130.898H126.103L161.003 219.898L124.803 319.198H174.903L190.603 262.298L206.203 319.198H256.003L219.903 219.898L254.703 130.898Z"></path>
<path fill="black" d="M394.5 130.898H345.9L330.3 184.298L314.7 130.898H265.8L300.7 219.898L264.5 319.198H314.7L330.3 262.298L345.9 319.198H395.7L359.6 219.898L394.5 130.898Z"></path>
<path fill="black" d="M450.103 274.598V130.898H404.303V319.198H488.403V274.598H450.103Z"></path>
</svg>
