<svg width="770" height="162" viewBox="0 0 770 162" fill="none" xmlns="http://www.w3.org/2000/svg">
<g clip-path="url(#clip0_137_5653)">
<path d="M116.931 162H72.5885L58.6731 112.979L44.6538 162H0L32.1923 76.5891L1.14231 0H44.6538L58.5692 46.0136L72.5885 0H115.789L84.7381 76.5891L116.931 162Z" fill="#99F500"></path>
<path d="M241.442 162H197.1L183.185 112.979L169.269 162H124.615L156.808 76.5891L125.654 0H169.165L183.081 46.0136L197.1 0H240.3L209.25 76.5891L241.442 162Z" fill="#99F500"></path>
<path fill-rule="evenodd" clip-rule="evenodd" d="M324 162V123.605H289.835V0H249.023V161.9L324 162Z" fill="#99F500"></path>
<path d="M374.052 142.608V111.035H388.34V139.309C388.34 145.604 390.554 149.104 395.674 149.104C400.175 149.104 404.746 145.906 404.746 137.094V111.035H419.034V160.812H405.127V154.719C403.42 157.044 401.221 158.912 398.706 160.176C396.192 161.44 393.432 162.063 390.649 161.995C381.03 161.995 374.052 156.103 374.052 142.608ZM426.844 111.035H440.774V117.707C442.546 115.205 444.858 113.189 447.518 111.827C450.178 110.465 453.108 109.796 456.062 109.876C465.586 109.876 472.564 115.869 472.564 129.239V160.812H458.276V132.26C458.276 125.94 455.895 122.667 450.561 122.667C445.227 122.667 441.036 125.764 441.036 134.677V160.812H426.748L426.844 111.035ZM479.707 91.8491H493.995V104.64H479.707V91.8491ZM479.707 111.035H493.995V160.812H479.707V111.035ZM505.258 147.064V122.088H498.852V111.035H505.258V100.083L519.544 96.0287V111.135H527.713V122.188H519.569V145.906C519.569 148.625 521.021 149.683 523.783 149.683H526.808V160.912H519.187C510.115 160.812 505.258 157.337 505.258 147.064ZM531.308 135.961C531.308 120.25 540.833 109.902 555.311 109.902C569.789 109.902 578.385 120.653 578.385 137.396V139.738H545.047C545.953 147.291 549.81 150.867 555.215 150.867C557.07 151.084 558.938 150.598 560.486 149.496C562.034 148.394 563.161 146.748 563.668 144.849H577.766C576.479 155.6 566.955 161.995 555.334 161.995C541.095 161.995 531.308 151.723 531.308 135.961ZM564.645 130.346C563.55 124.53 560.145 121.03 555.311 121.03C550.477 121.03 546.691 123.749 545.31 130.346H564.645ZM582.98 135.961C582.98 120.174 590.767 109.902 602.863 109.902C605.483 109.824 608.08 110.429 610.426 111.663C612.772 112.896 614.796 114.721 616.318 116.977V91.7989H630.605V160.812H616.675V154.442C615.124 156.797 613.053 158.715 610.643 160.032C608.231 161.348 605.554 162.022 602.84 161.995C590.767 161.995 582.98 151.723 582.98 135.961ZM606.983 149.91C612.841 149.91 616.508 144.874 616.508 135.961C616.508 127.048 612.746 122.013 606.983 122.013C601.221 122.013 597.458 127.048 597.458 135.961C597.458 144.874 601.125 149.884 606.983 149.884V149.91ZM419.058 54.2333H392.673L388.554 68.9624H372.6L393.317 0H418.414L439.488 68.9624H423.177L419.058 54.2333ZM415.105 40.2847L405.77 7.55339L396.603 40.2847H415.105ZM441.774 0H456.062V68.8114H441.774V0ZM464.301 0H478.588V68.8114H464.301V0ZM503.686 52.8737H517.616C518.355 58.3121 521.378 60.1502 526.212 60.1502C530.356 60.1502 532.904 58.2115 532.904 55.593C532.904 52.9744 531.166 51.9169 526.498 50.5574L519.617 48.5179C510.377 45.8239 504.329 42.3241 504.329 33.814C504.329 24.1205 512.568 18.1029 524.855 18.1029C539.976 18.1029 545.548 25.4801 546 35.0729H532.547C532.355 29.8359 529.07 28.1741 525.022 28.1741C520.973 28.1741 518.616 30.2136 518.616 32.7314C518.616 35.2492 520.998 36.2311 524.117 37.1878L532.999 39.7056C540.975 42.022 547.286 45.2196 547.286 53.9564C547.286 64.3045 539.047 70.1206 525.665 70.1206C513.306 69.9696 504.519 65.0347 503.686 52.622V52.8737ZM552.882 19.0093H566.812V25.5053C568.349 23.1364 570.417 21.2068 572.831 19.8887C575.245 18.5708 577.93 17.9053 580.647 17.9519C592.72 17.9519 600.506 28.2245 600.506 44.0111C600.506 59.7977 592.72 70.0703 580.647 70.0703C578.02 70.1441 575.416 69.5327 573.065 68.29C570.715 67.0473 568.69 65.2115 567.169 62.9449V86.6878H552.882V19.0093ZM576.504 57.9093C582.385 57.9093 586.028 52.8737 586.028 43.9607C586.028 35.0477 582.385 30.0121 576.504 30.0121C570.622 30.0121 566.979 35.0477 566.979 43.9607C566.979 52.8737 570.646 57.9093 576.504 57.9093ZM604.15 43.9103C604.15 28.1238 613.865 17.8512 628.438 17.8512C643.011 17.8512 652.607 28.1238 652.607 43.9103C652.607 59.6969 642.892 69.9696 628.438 69.9696C613.984 69.9696 604.15 59.6969 604.15 43.9103ZM628.462 57.9093C633.938 57.9093 638.154 53.4528 638.154 43.86C638.154 34.2672 633.938 29.8107 628.462 29.8107C622.985 29.8107 618.651 34.2672 618.651 43.86C618.651 53.4528 622.961 57.9093 628.462 57.9093ZM722.211 52.5716H736.14C736.879 58.01 739.903 59.848 744.76 59.848C748.88 59.848 751.452 57.9093 751.452 55.2908C751.452 52.6723 749.69 51.6148 745.023 50.2552L738.164 48.2158C728.901 45.5218 722.853 42.022 722.853 33.5119C722.853 23.8184 731.116 17.8008 743.379 17.8008C758.5 17.8008 764.072 25.178 764.548 34.7708H751.071C750.88 29.5337 747.594 27.872 743.569 27.872C739.545 27.872 737.14 29.9114 737.14 32.4292C737.14 34.947 739.522 35.9289 742.641 36.8857L751.523 39.4035C759.501 41.7199 765.81 44.9175 765.81 53.6542C765.81 64.0024 757.571 69.8185 744.213 69.8185C731.83 69.9696 723.044 65.0347 722.211 52.622V52.5716ZM657.346 19.0093H671.252V27.444C672.352 24.6745 674.241 22.3367 676.657 20.7571C679.073 19.1773 681.895 18.4343 684.73 18.6317H686.111V32.4795H684.183C676.205 32.4795 671.633 36.6591 671.633 46.0505V68.7107H657.346V19.0093ZM694.803 55.0642V30.0625H688.397V19.0093H694.803V8.08212L709.09 4.0033V19.1101H717.257V30.1632H709.09V53.906C709.09 56.6 710.566 57.6827 713.305 57.6827H716.328V68.912H708.733C699.66 68.8114 694.803 65.3117 694.803 55.0642Z" fill="white"></path>
</g>
<defs>
<clipPath id="clip0_137_5653">
<rect width="769.5" height="162" fill="white"></rect>
</clipPath>
</defs>
</svg>
